<svg xmlns="http://www.w3.org/2000/svg" xmlns:xlink="http://www.w3.org/1999/xlink" version="1.1" viewBox="50.96 399.16 943.09 243.34">
<g enable-background="new">
<clipPath id="cp0">
<path transform="matrix(.6666666,0,0,.6666666,0,0)" d="M 0 0 L 1562.5 0 L 1562.5 1562.5 L 0 1562.5 Z " fill-rule="evenodd" data-index="0" style="visibility: visible;"/>
</clipPath>
<g clip-path="url(#cp0)">

</g>
<clipPath id="cp1">
<path transform="matrix(.6666666,0,0,.6666666,0,0)" d="M 0 0 L 1562.5 0 L 1562.5 1562.5 L 0 1562.5 Z " fill-rule="evenodd" data-index="2" style="visibility: visible;"/>
</clipPath>
<g clip-path="url(#cp1)">

</g>
<clipPath id="cp2">
<path transform="matrix(.6666666,0,0,.6666666,0,0)" d="M 0 0 L 1562.5 0 L 1562.5 1562.5 L 0 1562.5 Z " fill-rule="evenodd" data-index="4" style="visibility: visible;"/>
</clipPath>
<g clip-path="url(#cp2)">
<g id="Layer-1" data-name="H1">
<g id="Layer-2" data-name="P">
</g>
<symbol id="font_3_2b5">
<path d="M .425 .36 C .46566669 .35133336 .49833337 .331 .52300009 .29900003 C .5476667 .26766668 .56000009 .23166669 .56000009 .19100002 C .56000009 .13233334 .5393334 .08566668 .498 .051000004 C .45733334 .017 .40033333 0 .32700003 0 L 0 0 L 0 .702 L .316 .702 C .38733337 .70199999 .443 .68566676 .483 .65300008 C .5236667 .6203334 .544 .57600006 .544 .52000007 C .544 .4786667 .53300008 .44433335 .51100006 .41700004 C .4896667 .38966669 .461 .37066666 .425 .36 M .171 .418 L .28300003 .418 C .31100003 .418 .33233337 .42400003 .347 .43600003 C .36233334 .4486667 .37 .467 .37 .49100004 C .37 .51500007 .36233334 .53333339 .347 .546 C .33233337 .55866667 .31100003 .565 .28300003 .565 L .171 .565 L .171 .418 M .29700003 .13800001 C .32566668 .13800001 .34766666 .14433335 .363 .157 C .37900005 .17033334 .387 .18933334 .38700003 .21400002 C .387 .2386667 .37866668 .25800003 .36200003 .272 C .346 .286 .32366667 .293 .29500003 .293 L .171 .293 L .171 .13800001 L .29700003 .13800001 Z " data-index="5" style="visibility: visible;"/>
</symbol>
<symbol id="font_3_2dc">
<path d="M .102 .61600008 C .072000008 .61600008 .047333335 .6246667 .027999998 .642 C .009333332 .66 0 .682 0 .708 C 0 .73466667 .009333332 .75666669 .027999998 .77400007 C .047333335 .79200008 .072000008 .80100008 .102 .80100008 C .13133334 .80100008 .15533334 .79200008 .17400001 .77400007 C .19333335 .75666669 .20300001 .73466667 .20300001 .708 C .20300001 .682 .19333335 .66 .17400001 .642 C .15533334 .6246667 .13133334 .61600008 .102 .61600008 M .187 .558 L .187 0 L .015999999 0 L .015999999 .558 L .187 .558 Z " data-index="6" style="visibility: visible;"/>
</symbol>
<symbol id="font_3_2e7">
<path d="M .35200004 .14500001 L .35200004 0 L .26500003 0 C .20300001 0 .15466668 .015000001 .120000008 .045 C .08533334 .07566667 .068 .12533334 .068 .194 L .068 .416 L 0 .416 L 0 .558 L .068 .558 L .068 .694 L .23900002 .694 L .23900002 .558 L .351 .558 L .351 .416 L .23900002 .416 L .23900002 .192 C .23900002 .17533334 .24300003 .16333334 .25100003 .156 C .25900004 .14866668 .27233336 .14500001 .291 .14500001 L .35200004 .14500001 Z " data-index="7" style="visibility: visible;"/>
</symbol>
<symbol id="font_3_2ca">
<path d="M 1.003 .702 L .82000008 0 L .61300006 0 L .50100007 .462 L .38500003 0 L .178 0 L 0 .702 L .183 .702 L .284 .19100002 L .409 .702 L .59700009 .702 L .71700009 .19100002 L .81900009 .702 L 1.003 .702 Z " data-index="8" style="visibility: visible;"/>
</symbol>
<symbol id="font_3_2e6">
<path d="M .257 0 C .20833333 0 .165 .008333334 .127 .025000003 C .08900001 .04166667 .059000005 .06433334 .037000006 .093 C .0150000019 .12233334 .002666667 .15500002 0 .19100002 L .169 .19100002 C .171 .17166668 .18 .15600002 .19600001 .14400001 C .21200001 .13200002 .23166667 .126 .255 .126 C .27633334 .126 .29266668 .13000001 .30400003 .13800001 C .316 .14666668 .322 .15766667 .322 .171 C .322 .18699999 .31366668 .19866668 .29700003 .20600002 C .28033338 .214 .25333337 .22266668 .216 .23200001 C .176 .24133335 .14266667 .25100003 .116 .261 C .08933333 .27166669 .06633334 .28800003 .047000003 .31 C .027666668 .33266668 .018 .363 .018 .401 C .018 .433 .026666666 .462 .044000005 .488 C .062000008 .51466676 .08800001 .5356667 .12200001 .55100008 C .15666668 .56633338 .19766669 .57400009 .245 .57400009 C .31500004 .57400009 .37000004 .5566667 .41000004 .522 C .45066668 .48733334 .474 .44133333 .48000003 .384 L .322 .384 C .31933335 .40333335 .31066669 .4186667 .296 .43 C .282 .44133333 .26333336 .447 .24000001 .447 C .22000002 .447 .20466668 .443 .194 .435 C .18333334 .42766667 .17800002 .41733334 .178 .404 C .17800002 .388 .18633335 .37600003 .20300001 .368 C .22033334 .36 .24700003 .352 .28300003 .344 C .32433335 .33333335 .358 .32266668 .384 .312 C .41 .30200003 .4326667 .2853333 .45200003 .262 C .472 .23933335 .48233334 .20866668 .48300005 .17 C .48300005 .13733334 .4736667 .108 .455 .082 C .437 .056666674 .41066668 .03666667 .37600003 .022 C .342 .007333333 .30233336 0 .257 0 Z " data-index="9" style="visibility: visible;"/>
</symbol>
<symbol id="font_3_2d8">
<path d="M .56 .296 C .56 .28 .559 .26333333 .55700007 .246 L .17000002 .246 C .17266667 .21133334 .18366666 .18466668 .20300001 .16600001 C .223 .14800002 .24733335 .13900002 .27600003 .13900002 C .3186667 .13900002 .34833337 .157 .365 .193 L .54700008 .193 C .53766676 .15633334 .5206667 .12333334 .49600006 .094000007 C .47200004 .064666669 .4416667 .04166667 .40500004 .025000003 C .36833335 .008333334 .32733337 0 .282 0 C .22733335 0 .17866667 .011666667 .136 .035 C .093333337 .058333335 .06 .09166667 .036000004 .135 C .012000001 .17833334 0 .22900002 0 .287 C 0 .34500004 .011666667 .3956667 .035 .439 C .059000005 .48233334 .09233334 .51566669 .135 .53900006 C .17766668 .5623334 .22666669 .57400009 .282 .57400009 C .33600006 .57400009 .38400004 .5626667 .42600004 .54 C .46800003 .5173333 .5006667 .48500005 .52400007 .44300003 C .54800006 .40100003 .56 .352 .56 .296 M .38500003 .341 C .38500003 .3703333 .375 .39366666 .35500003 .411 C .33500005 .42833338 .31000004 .437 .28000004 .437 C .25133337 .437 .22700002 .42866669 .20700002 .412 C .1876667 .39533333 .17566669 .37166668 .17100002 .341 L .38500003 .341 Z " data-index="10" style="visibility: visible;"/>
</symbol>
<use xlink:href="#font_3_2b5" transform="matrix(185.01212,0,0,-185.01212,292.6705,581.70309)" fill="#1da2b4"/>
<use xlink:href="#font_3_2dc" transform="matrix(185.01212,0,0,-185.01212,411.63325,581.70309)" fill="#1da2b4"/>
<use xlink:href="#font_3_2e7" transform="matrix(185.01212,0,0,-185.01212,461.5865,581.70309)" fill="#1da2b4"/>
<use xlink:href="#font_3_2ca" transform="matrix(185.01212,0,0,-185.01212,537.4414,581.70309)" fill="#1da2b4"/>
<use xlink:href="#font_3_2dc" transform="matrix(185.01212,0,0,-185.01212,735.9594,581.70309)" fill="#1da2b4"/>
<use xlink:href="#font_3_2e6" transform="matrix(185.01212,0,0,-185.01212,787.94778,583.18319)" fill="#1da2b4"/>
<use xlink:href="#font_3_2d8" transform="matrix(185.01212,0,0,-185.01212,890.4444,583.18319)" fill="#1da2b4"/>
</g>
</g>
<clipPath id="cp4">
<path transform="matrix(.6666666,0,0,.6666666,0,0)" d="M 76.4389 598.7427 L 413.9389 598.7427 L 413.9389 964.3677 L 76.4389 964.3677 Z " fill-rule="evenodd" data-index="11" style="visibility: visible;"/>
</clipPath>
<g clip-path="url(#cp4)">
<path transform="matrix(1.1780105,0,0,1.1774982,-51.527639,178.97353)" d="M 156.3 199 C 158.6 196.4 161.90001 195 165.3 195 L 187.3 195 C 189.1 195.1 190.6 196.6 190.5 198.4 C 190.5 199.2 190.2 199.9 189.6 200.5 L 146 248.9 L 170 248.9 L 194.5 275.9 L 146 275.9 L 194.5 329.8 L 165.2 329.8 C 161.8 329.8 158.5 328.4 156.2 325.8 L 107.1 271 C 102.7 266.1 102.7 258.6 107.1 253.7 L 156.3 199 Z " fill="#1da2b4" data-index="12" style="visibility: visible;"/>
<path transform="matrix(1.1780105,0,0,1.1774982,-51.527639,178.97353)" d="M 224 379.6 C 221.7 382.2 218.4 383.6 215 383.6 L 193 383.6 C 191.2 383.5 189.7 382 189.8 380.2 C 189.8 379.40003 190.1 378.7 190.7 378.1 L 234.2 329.7 L 210.2 329.7 L 185.7 302.80003 L 234.2 302.80003 L 185.7 248.90003 L 215 248.90003 C 218.4 248.90003 221.7 250.40003 224 252.90003 L 273.2 307.60005 C 277.6 312.50004 277.6 320.00004 273.2 324.90003 L 224 379.6 Z " fill="#1da2b4" data-index="13" style="visibility: visible;"/>
</g>
<g id="Layer-1" data-name="Image">
<path transform="matrix(2.7777777,0,0,-2.7777777,0,1063.9999)" d="M 18.345337 151.73824 L 99.17756 151.73824 L 99.17756 239.34174 L 18.345337 239.34174 Z " fill-opacity="0" data-index="14" style="visibility: visible; opacity: 1;"/>
</g>
</g>
</svg>